Coordinates
version=1
nRows=14
nColumns=24
inDegrees=yes

Units are S.I. units (second, meters, Newtons, ...)
Angles are in degrees.

endheader
time	pelvis_tilt	pelvis_list	pelvis_rotation	pelvis_tx	pelvis_ty	pelvis_tz	hip_flexion_r	hip_adduction_r	hip_rotation_r	knee_angle_r	ankle_angle_r	subtalar_angle_r	mtp_angle_r	hip_flexion_l	hip_adduction_l	hip_rotation_l	knee_angle_l	ankle_angle_l	subtalar_angle_l	mtp_angle_l	lumbar_extension	lumbar_bending	lumbar_rotation
      0.52100000	     -1.26265009	      6.41203863	     -3.24715538	     -0.72498041	      0.97829013	      0.30520793	     25.87200596	     -4.73586309	     -1.04700070	      0.17150312	      0.25561297	     -3.10256522	      8.42429306	    -19.55469697	     11.51193147	      6.00230823	      2.96740137	      9.52449526	    -12.41735899	     -1.91829839	    -11.41691946	      0.42097754	     -8.15716011
      0.52516667	     -1.30979661	      6.30158955	     -3.30111740	     -0.71926185	      0.97746298	      0.30545108	     25.94067555	     -4.54969326	     -0.88158673	     -0.07213941	      0.08825130	     -3.00317896	      8.42899309	    -19.69029098	     11.40969332	      6.00833678	      2.61712086	      9.65629760	    -12.43788615	     -1.91009775	    -11.37649386	      0.58878474	     -8.14949970
      0.52933333	     -1.39890350	      6.17842201	     -3.33660290	     -0.71349846	      0.97664992	      0.30571946	     26.02713095	     -4.35048790	     -0.63588936	     -0.33599590	     -0.23156937	     -3.13078722	      8.47021344	    -19.69203684	     11.29054247	      5.76386624	      2.06918324	     10.02294022	    -11.91143508	     -1.84267512	    -11.26301377	      0.78964759	     -8.18762304
      0.53350000	     -1.47962716	      6.02569965	     -3.38581624	     -0.70768346	      0.97588782	      0.30601151	     26.10158508	     -4.11845687	     -0.36326470	     -0.66531505	     -0.54689347	     -3.23588097	      8.50056761	    -19.73285152	     11.14563031	      5.66421322	      1.58195237	     10.22446448	    -11.77679025	     -1.79025239	    -11.16601955	      1.02515011	     -8.16282713
      0.53766667	     -1.54988083	      5.88156241	     -3.44660135	     -0.70187237	      0.97517693	      0.30635567	     26.19045136	     -3.88657956	     -0.05841149	     -1.09527449	     -0.98449808	     -3.53284550	      8.55469161	    -19.74959836	     11.01166468	      5.46274950	      1.03179674	     10.47449433	    -11.43272411	     -1.69042569	    -11.08865906	      1.22380587	     -8.17109824
      0.54183333	     -1.61226468	      5.72067162	     -3.50062061	     -0.69603241	      0.97452767	      0.30669941	     26.26655798	     -3.64229393	      0.24720782	     -1.57343312	     -1.41879082	     -3.80674137	      8.63570593	    -19.74303938	     10.86208088	      5.25698351	      0.41125346	     10.71058419	    -11.13255760	     -1.54355352	    -11.02586655	      1.45031615	     -8.16423768
      0.54600000	     -1.71171729	      5.52939118	     -3.55995240	     -0.69011026	      0.97387376	      0.30704513	     26.38951325	     -3.36376391	      0.52491686	     -2.12336390	     -1.88206773	     -4.02753109	      8.68488087	    -19.71653161	     10.68379524	      5.12966722	     -0.17760711	     10.86452790	    -11.01449690	     -1.44419392	    -10.89902405	      1.73769632	     -8.13984620
      0.55016667	     -1.78030489	      5.36030576	     -3.61971004	     -0.68422170	      0.97329611	      0.30745059	     26.49818688	     -3.10168969	      0.84279551	     -2.73731851	     -2.43959746	     -4.47523743	      8.77713078	    -19.66947698	     10.52552591	      4.88166669	     -0.86694790	     11.07453268	    -10.65407584	     -1.25204475	    -10.82843786	      1.95987452	     -8.14176741
      0.55433333	     -1.86527633	      5.16746447	     -3.68669234	     -0.67826161	      0.97273714	      0.30785818	     26.62787362	     -2.81400901	      1.12630086	     -3.39986194	     -2.97066573	     -4.82586197	      8.86113862	    -19.60935103	     10.34763913	      4.70170794	     -1.55266743	     11.21348024	    -10.44027920	     -1.06691923	    -10.72264833	      2.23085629	     -8.11518334
      0.55850000	     -1.94873353	      4.97198475	     -3.75031474	     -0.67228887	      0.97222210	      0.30828277	     26.76244892	     -2.52274712	      1.42082075	     -4.10474083	     -3.52257655	     -5.25368446	      8.95708755	    -19.51910825	     10.16615464	      4.47487235	     -2.30096903	     11.34454299	    -10.19935363	     -0.83861797	    -10.62542663	      2.50330544	     -8.09645782
      0.56266667	     -2.04145191	      4.75071799	     -3.82114132	     -0.66627098	      0.97173041	      0.30871870	     26.91768842	     -2.20299865	      1.67559457	     -4.86572427	     -3.99378713	     -5.57435378	      9.01439168	    -19.41485310	      9.96457229	      4.29894890	     -3.06735353	     11.40145303	    -10.13727953	     -0.68586366	    -10.53018555	      2.81493045	     -8.06701920
      0.56683333	     -2.13825882	      4.56045883	     -3.88538366	     -0.66026499	      0.97126949	      0.30918299	     27.09483695	     -1.91087752	      1.94945289	     -5.67130576	     -4.52019964	     -6.06409971	      9.08101621	    -19.26618909	      9.78896902	      4.07862731	     -3.90227682	     11.45962958	     -9.94646719	     -0.48437017	    -10.41522808	      3.07685365	     -8.04584094
      0.57100000	     -2.19648832	      4.36052088	     -3.94298054	     -0.65423410	      0.97088418	      0.30965239	     27.25475547	     -1.61895531	      2.12794889	     -6.54854396	     -4.97831676	     -6.47001296	     10.33926665	    -19.11610148	      9.59374397	      3.70531617	     -4.82469139	     11.54493974	     -9.47359729	      3.11104382	    -10.35154901	      3.33786102	     -7.95640014
      0.57516667	     -2.28036976	      4.14518613	     -4.02966857	     -0.64816040	      0.97051024	      0.31015574	     27.42281550	     -1.29222849	      2.40454020	     -7.40265990	     -5.43541258	     -6.95616332	     10.34102393	    -18.97715130	      9.40562033	      3.56534752	     -5.66570161	     11.41777777	     -9.56228812	      3.15629379	    -10.24682723	      3.64725496	     -7.97839884
